<svg xmlns="http://www.w3.org/2000/svg" width="500" height="400" viewBox="0 0 500 400"><rect width="100%" height="100%" fill="#DDDDDD"/><path fill="#999999" d="M107.71 182.94v14.54h1.52q.91 0 1.51-.25t1.03-.81l9.58-12.12q.6-.76 1.26-1.06.66-.3 1.66-.3h5.57l-11.69 14.42q-1.03 1.32-2.13 1.87.79.29 1.43.81.63.51 1.21 1.35l12.05 16.25h-5.69q-1.15 0-1.72-.32-.56-.33-.95-.95l-9.81-12.82q-.46-.65-1.06-.91-.6-.26-1.73-.26h-2.04v15.26h-6.45v-34.7h6.45Zm38.52 28.34v-4.15q-2.56.12-4.32.44-1.75.33-2.8.83-1.06.5-1.52 1.18-.45.67-.45 1.46 0 1.56.92 2.23.93.67 2.41.67 1.83 0 3.16-.66t2.6-2Zm-12.52-12.94-1.06-1.89q4.25-3.89 10.22-3.89 2.16 0 3.87.71 1.7.71 2.88 1.97 1.17 1.26 1.79 3.01.61 1.75.61 3.84v15.55h-2.69q-.84 0-1.3-.25-.45-.25-.72-1.02l-.52-1.78q-.94.84-1.83 1.48-.89.63-1.85 1.07-.96.43-2.05.66-1.09.22-2.41.22-1.56 0-2.88-.42-1.32-.42-2.28-1.26-.96-.84-1.49-2.08-.53-1.25-.53-2.91 0-.93.32-1.86.31-.92 1.02-1.76.7-.84 1.83-1.59 1.13-.74 2.77-1.29 1.65-.55 3.83-.9 2.19-.35 4.99-.42v-1.44q0-2.47-1.05-3.66-1.06-1.19-3.05-1.19-1.44 0-2.39.34-.95.33-1.67.75l-1.3.76q-.59.33-1.31.33-.63 0-1.06-.32-.43-.32-.69-.76Zm24.07-5.32h5.95v24.62h-5.95v-24.62Zm6.77-7.18q0 .77-.32 1.44-.31.67-.82 1.18-.52.5-1.22.8-.69.3-1.48.3-.77 0-1.46-.3-.68-.3-1.18-.8-.51-.51-.81-1.18-.3-.67-.3-1.44 0-.79.3-1.49.3-.69.81-1.2.5-.5 1.18-.8.69-.3 1.46-.3.79 0 1.48.3.7.3 1.22.8.51.51.82 1.2.32.7.32 1.49Zm22.92 7.18v2.44q0 .63-.22 1.23t-.58.98l-11.68 15.41h12.12v4.56H168.1v-2.47q0-.41.19-.97.19-.57.58-1.07l11.8-15.58h-11.88v-4.53h18.68Zm9.04 9.48h11.19q0-1.16-.33-2.18-.32-1.02-.97-1.78-.65-.77-1.64-1.22-1-.44-2.32-.44-2.57 0-4.04 1.46-1.48 1.47-1.89 4.16Zm15.12 3.57h-15.24q.15 1.9.68 3.28.52 1.38 1.39 2.28.86.9 2.05 1.34 1.19.45 2.63.45t2.48-.34q1.05-.34 1.83-.74.78-.41 1.36-.75.59-.33 1.14-.33.75 0 1.11.55l1.7 2.16q-.98 1.15-2.21 1.93-1.22.78-2.55 1.25-1.33.47-2.71.66-1.38.19-2.68.19-2.57 0-4.78-.85-2.2-.85-3.84-2.52-1.63-1.67-2.56-4.13-.94-2.46-.94-5.7 0-2.52.82-4.74.81-2.22 2.34-3.86 1.52-1.65 3.72-2.61 2.19-.96 4.95-.96 2.33 0 4.3.75 1.97.74 3.38 2.17 1.42 1.43 2.22 3.5.81 2.08.81 4.74 0 1.35-.29 1.81-.29.47-1.11.47Zm10.97-11.97.41 1.94q.74-.74 1.57-1.38.83-.64 1.75-1.08.93-.44 1.98-.7 1.06-.25 2.31-.25 2.01 0 3.57.69 1.56.68 2.61 1.92 1.04 1.23 1.58 2.95.54 1.71.54 3.78v15.67h-5.93v-15.67q0-2.26-1.03-3.49-1.03-1.24-3.14-1.24-1.54 0-2.88.7-1.35.69-2.55 1.89v17.81h-5.92v-24.62h3.62q1.15 0 1.51 1.08Zm40.99 18.21h13.88v5.33h-20.33v-34.7h6.45v29.37Zm17.74-19.29h5.95v24.62h-5.95v-24.62Zm6.77-7.18q0 .77-.31 1.44-.32.67-.83 1.18-.52.5-1.21.8-.7.3-1.49.3-.77 0-1.45-.3-.69-.3-1.19-.8-.51-.51-.81-1.18-.3-.67-.3-1.44 0-.79.3-1.49.3-.69.81-1.2.5-.5 1.19-.8.68-.3 1.45-.3.79 0 1.49.3.69.3 1.21.8.51.51.83 1.2.31.7.31 1.49Zm10.37 8.26.4 1.94q.75-.74 1.58-1.38.82-.64 1.75-1.08.92-.44 1.98-.7 1.05-.25 2.3-.25 2.02 0 3.58.69 1.56.68 2.6 1.92 1.05 1.23 1.59 2.95.54 1.71.54 3.78v15.67h-5.93v-15.67q0-2.26-1.03-3.49-1.04-1.24-3.15-1.24-1.53 0-2.88.7-1.34.69-2.54 1.89v17.81h-5.93v-24.62h3.62q1.16 0 1.52 1.08Zm37.39 16.24V199.3q-1.01-1.22-2.2-1.72-1.19-.51-2.55-.51-1.35 0-2.43.51-1.08.5-1.85 1.52-.76 1.02-1.17 2.59-.41 1.57-.41 3.71 0 2.16.35 3.66t.99 2.45q.65.95 1.59 1.37.93.42 2.09.42 1.84 0 3.14-.77t2.45-2.19Zm0-28.36h5.93v35.66h-3.63q-1.17 0-1.49-1.08l-.5-2.38q-1.49 1.71-3.42 2.76-1.93 1.06-4.5 1.06-2.02 0-3.7-.84-1.68-.84-2.89-2.44-1.21-1.59-1.87-3.94-.66-2.36-.66-5.38 0-2.74.74-5.09.75-2.35 2.14-4.08 1.39-1.73 3.34-2.7 1.94-.97 4.36-.97 2.07 0 3.53.65 1.47.65 2.62 1.75v-12.98Zm11.85 0h5.93v35.66h-5.93v-35.66Zm24.87 29.3v-4.15q-2.57.12-4.32.44-1.75.33-2.81.83-1.06.5-1.51 1.18-.46.67-.46 1.46 0 1.56.93 2.23.92.67 2.41.67 1.82 0 3.15-.66 1.34-.66 2.61-2Zm-12.53-12.94-1.06-1.89q4.25-3.89 10.23-3.89 2.16 0 3.86.71 1.71.71 2.88 1.97 1.18 1.26 1.79 3.01.61 1.75.61 3.84v15.55h-2.69q-.84 0-1.29-.25-.46-.25-.72-1.02l-.53-1.78q-.94.84-1.82 1.48-.89.63-1.85 1.07-.96.43-2.05.66-1.1.22-2.42.22-1.56 0-2.88-.42-1.32-.42-2.28-1.26-.96-.84-1.48-2.08-.53-1.25-.53-2.91 0-.93.31-1.86.31-.92 1.02-1.76t1.84-1.59q1.12-.74 2.77-1.29 1.64-.55 3.83-.9 2.18-.35 4.99-.42v-1.44q0-2.47-1.06-3.66-1.05-1.19-3.05-1.19-1.44 0-2.38.34-.95.33-1.67.75t-1.31.76q-.59.33-1.31.33-.62 0-1.05-.32-.44-.32-.7-.76Zm29.11-3.84.36 2.79q1.15-2.21 2.74-3.47 1.58-1.26 3.74-1.26 1.71 0 2.74.74l-.39 4.44q-.12.44-.34.62-.23.18-.62.18-.36 0-1.06-.12-.71-.12-1.38-.12-.99 0-1.76.28-.76.29-1.38.83-.61.54-1.08 1.31-.46.77-.87 1.75v15.17h-5.93v-24.62h3.48q.91 0 1.27.32t.48 1.16Z"/></svg>