
<svg width="180" height="145" viewBox="0 0 180 145" fill="none" xmlns="http://www.w3.org/2000/svg">
<g clip-path="url(#clip0_3:152)">
<path d="M1.31811e-07 29.9382C9.33019e-06 28.528 0.278708 27.1315 0.820184 25.8286C1.36166 24.5258 2.15531 23.3419 3.15581 22.3448C4.15631 21.3476 5.34407 20.5566 6.65128 20.017C7.95848 19.4774 9.35953 19.1996 10.7744 19.1997H22.5979L60.068 19.2009H119.9L157.399 19.1997H169.223C170.638 19.1996 172.039 19.4774 173.346 20.017C174.653 20.5566 175.841 21.3476 176.841 22.3447C177.842 23.3419 178.636 24.5257 179.177 25.8286C179.718 27.1315 179.997 28.5279 179.997 29.9382L179.995 30.1355C180.082 32.9383 178.95 36.1242 176.461 39.5031L147.851 78.3547H157.107C158.637 78.3546 160.104 78.9604 161.186 80.0387C162.269 81.1171 162.877 82.5797 162.877 84.1048V111.239C162.877 112.764 162.269 114.227 161.187 115.306C160.105 116.384 158.637 116.99 157.107 116.99H120.439L104.942 136.588C96.6808 147.804 83.2871 147.804 75.026 136.588L59.528 116.99H22.8435C21.3134 116.99 19.846 116.384 18.764 115.305C17.6821 114.227 17.0743 112.764 17.0743 111.239V84.1048C17.0743 82.5798 17.6822 81.1172 18.7641 80.0389C19.8461 78.9605 21.3135 78.3547 22.8435 78.3547H32.1364L3.50677 39.5031C1.3162 36.5265 0.198515 33.6718 0.061495 31.0915C0.0204674 30.7084 -6.00197e-05 30.3234 1.31811e-07 29.9382Z" fill="#00537E"/>
<path d="M5.16123 11.0266L8.40442 1.9856H7.153L5.61856 6.45207C5.20122 7.63274 4.83792 8.77294 4.58207 9.81941H4.5549C4.29937 8.77294 3.96294 7.65951 3.5865 6.43897L2.17295 1.98563H0.894669L3.8686 11.0266L5.16123 11.0266Z" fill="#00537E"/>
<path d="M14.5203 5.82213H11.0074V2.96441H14.7356V1.9856H9.82288V11.0266H14.9375V10.0471H11.0074V6.78761H14.5203V5.82213Z" fill="#00537E"/>
<path fill-rule="evenodd" clip-rule="evenodd" d="M16.9112 11.0266H18.082V7.10936H19.1857C20.2488 7.14983 20.7467 7.61935 21.016 8.86697C21.1395 9.60497 21.3379 10.3286 21.6083 11.0266H22.8197C22.5253 10.2187 22.2958 9.38882 22.1334 8.54472C22.0866 8.15236 21.9395 7.77854 21.7061 7.45911C21.4728 7.13968 21.161 6.88534 20.8008 6.72047V6.6803C21.2959 6.5331 21.73 6.23014 22.0381 5.81669C22.3462 5.40324 22.5118 4.90152 22.5101 4.3865C22.5202 4.06626 22.4618 3.74753 22.3388 3.45151C22.2158 3.15549 22.031 2.88897 21.7966 2.66966C21.0444 2.09561 20.1018 1.82713 19.1588 1.91833C18.405 1.91607 17.6526 1.98341 16.9112 2.11948V11.0265V11.0266ZM18.082 2.93777C18.4622 2.8564 18.8507 2.82043 19.2394 2.83064C20.4777 2.83064 21.3258 3.34036 21.3258 4.50731C21.3258 5.5404 20.5315 6.22415 19.2797 6.22415H18.082V2.93777Z" fill="#00537E"/>
<path d="M29.2871 5.82213H25.7742V2.96441H29.5024V1.9856H24.5903V11.0266H29.7043V10.0471H25.7742V6.78761H29.2871V5.82213Z" fill="#00537E"/>
<path d="M31.6645 1.9856V11.0266H32.8491V1.9856H31.6645Z" fill="#00537E"/>
<path d="M36.4486 11.0265V7.16349C36.4486 5.66088 36.4348 4.57424 36.3674 3.43404L36.4077 3.42064C36.9018 4.46229 37.4638 5.47056 38.0902 6.43896L40.9704 11.0265H42.1546V1.9856H41.0513V5.78169C41.0513 7.17691 41.0781 8.27663 41.1859 9.48406L41.1453 9.49716C40.6754 8.48217 40.1357 7.50071 39.5303 6.55978L36.6367 1.9856H35.3449V11.0266L36.4486 11.0265Z" fill="#00537E"/>
<path d="M47.9477 11.0266H49.1316V6.93551H52.5502V5.96939H49.1316V2.96441H52.833V1.9856H47.9477V11.0266Z" fill="#00537E"/>
<path fill-rule="evenodd" clip-rule="evenodd" d="M54.9522 1.98555V7.31104C54.9522 10.1276 56.352 11.1741 58.2094 11.1741C60.174 11.1741 61.641 10.0473 61.641 7.27057V1.98555H60.4567V7.35091C60.4567 9.33646 59.5823 10.2216 58.2631 10.2216C57.0383 10.2216 56.1364 9.36322 56.1364 7.35091V1.98555H54.9522ZM57.1057 1.35504C57.193 1.35536 57.2793 1.33801 57.3596 1.30406C57.4399 1.2701 57.5125 1.22024 57.5729 1.15749C57.6332 1.09475 57.6802 1.02044 57.7109 0.939065C57.7416 0.857688 57.7554 0.770945 57.7515 0.684095C57.7567 0.596296 57.744 0.508349 57.7139 0.425651C57.6838 0.342954 57.6372 0.267251 57.5767 0.203189C57.5162 0.139127 57.4433 0.0880586 57.3623 0.0531178C57.2813 0.0181769 57.194 0.000101157 57.1057 0C57.0171 0.000894453 56.9295 0.0193951 56.8482 0.0544199C56.7668 0.0894448 56.6932 0.140291 56.6318 0.203984C56.5704 0.267678 56.5223 0.342941 56.4904 0.425371C56.4585 0.507801 56.4434 0.595744 56.446 0.684057C56.4432 0.770643 56.4578 0.85691 56.489 0.937789C56.5201 1.01867 56.5672 1.09253 56.6273 1.15503C56.6875 1.21754 56.7596 1.26743 56.8394 1.30177C56.9192 1.33611 57.0051 1.35421 57.092 1.35501L57.1057 1.35504ZM59.5552 1.35504C59.6434 1.35678 59.7311 1.34051 59.8128 1.30723C59.8945 1.27395 59.9685 1.22436 60.0303 1.16152C60.092 1.09867 60.1402 1.0239 60.1719 0.941798C60.2036 0.859695 60.2182 0.771997 60.2146 0.684095C60.2198 0.596279 60.207 0.508321 60.1769 0.425618C60.1469 0.342915 60.1001 0.267211 60.0396 0.203152C59.9792 0.139093 59.9062 0.08803 59.8252 0.0530958C59.7442 0.0181617 59.6569 9.35417e-05 59.5686 0C59.48 0.000900395 59.3924 0.0194074 59.3111 0.0544381C59.2297 0.0894689 59.1562 0.14032 59.0948 0.204017C59.0334 0.267713 58.9853 0.342976 58.9534 0.425401C58.9216 0.507827 58.9065 0.59576 58.9091 0.684057C58.9049 0.769892 58.9181 0.8557 58.9478 0.936354C58.9776 1.01701 59.0234 1.09085 59.0824 1.15348C59.1415 1.21611 59.2126 1.26623 59.2915 1.30086C59.3704 1.33548 59.4555 1.3539 59.5417 1.35501L59.5552 1.35504Z" fill="#00537E"/>
<path fill-rule="evenodd" clip-rule="evenodd" d="M64.1256 11.0266H65.2964V7.10934H66.4001C67.4634 7.14982 67.9611 7.61934 68.2303 8.86695C68.3537 9.605 68.5521 10.3286 68.8226 11.0266H70.034C69.74 10.2186 69.5104 9.38872 69.3474 8.54471C69.3008 8.15237 69.1538 7.77855 68.9206 7.45911C68.6873 7.13967 68.3756 6.88532 68.0154 6.72045V6.68028C68.5105 6.53308 68.9446 6.23011 69.2526 5.81666C69.5607 5.40321 69.7262 4.90148 69.7245 4.38649C69.7347 4.06623 69.6763 3.74748 69.5533 3.45145C69.4303 3.15543 69.2454 2.88891 69.011 2.66965C68.2587 2.09564 67.3162 1.82716 66.3732 1.91832C65.6194 1.91607 64.867 1.98341 64.1256 2.11947V11.0265L64.1256 11.0266ZM65.2964 2.93772C65.6766 2.85635 66.0651 2.82039 66.4538 2.8306C67.6921 2.8306 68.5402 3.34032 68.5402 4.50728C68.5402 5.54036 67.7458 6.22412 66.4944 6.22412H65.2964V2.93776V2.93772Z" fill="#00537E"/>
<path d="M75.1254 11.0266H76.2962V7.57917L77.1709 6.58656L80.1454 11.0266H81.5318L77.9919 5.82187L81.2759 1.9856H79.8224L77.0497 5.37911C76.8211 5.67428 76.5789 5.99623 76.3368 6.34522H76.2962V1.98561H75.1254V11.0266V11.0266Z" fill="#00537E"/>
<path fill-rule="evenodd" clip-rule="evenodd" d="M87.6925 8.18258L88.6618 11.0265H89.9135L86.8178 1.9856H85.4049L82.3229 11.0266H83.534L84.4758 8.18262L87.6925 8.18258ZM84.7186 7.2706L85.6067 4.65457C85.7816 4.105 85.9297 3.54145 86.0505 3.01806H86.0911C86.2258 3.54145 86.3604 4.07793 86.5488 4.66826L87.4506 7.2706H84.7186Z" fill="#00537E"/>
<path d="M99.5556 11.0266H100.713L100.148 1.9856H98.654L97.039 6.35864C96.6348 7.49884 96.3124 8.49116 96.07 9.40343H96.0431C95.8007 8.46468 95.5046 7.47176 95.1278 6.35864L93.5803 1.9856H92.0859L91.4536 11.0266H92.5707L92.8131 7.14984C92.8937 5.78172 92.9611 4.2791 92.988 3.1526H93.0149C93.2704 4.22555 93.6203 5.37914 94.0514 6.66692L95.5315 10.973H96.4199L98.0218 6.58658C98.4791 5.33897 98.8421 4.19877 99.1651 3.1526H99.1926C99.1926 4.26572 99.2732 5.79514 99.3401 7.05582L99.5556 11.0266H99.5556Z" fill="#00537E"/>
<path fill-rule="evenodd" clip-rule="evenodd" d="M102.967 11.0266H104.138V7.40457C104.448 7.46829 104.764 7.49536 105.08 7.48522C105.586 7.51436 106.092 7.44148 106.568 7.27097C107.045 7.10045 107.482 6.8358 107.853 6.49289C108.097 6.23572 108.286 5.9319 108.408 5.59982C108.531 5.26774 108.585 4.91431 108.566 4.56092C108.578 4.20608 108.512 3.85301 108.372 3.52636C108.233 3.1997 108.023 2.90735 107.759 2.66971C107.032 2.11673 106.126 1.84934 105.214 1.9184C104.461 1.91088 103.709 1.97374 102.967 2.10615V11.0266ZM104.138 2.93778C104.502 2.87184 104.872 2.84035 105.242 2.84375C106.534 2.84375 107.382 3.42069 107.382 4.62784C107.382 5.84868 106.534 6.54642 105.107 6.54642C104.781 6.55452 104.456 6.52284 104.138 6.4521V2.93782V2.93778Z" fill="#00537E"/>
<path d="M110.568 11.0266H111.752V6.93551H115.17V5.96939H111.752V2.96441H115.453V1.9856H110.568V11.0266Z" fill="#00537E"/>
<path d="M117.585 11.0265H118.756V7.57916L119.631 6.58654L122.605 11.0265H123.992L120.452 5.82185L123.736 1.9856H122.282L119.51 5.37911C119.281 5.67428 119.039 5.99623 118.797 6.34522H118.756V1.9856H117.585V11.0266V11.0265Z" fill="#00537E"/>
<path d="M125.321 1.9856V7.31108C125.321 10.1277 126.721 11.1741 128.578 11.1741C130.543 11.1741 132.01 10.0473 132.01 7.27061V1.9856H130.826V7.35096C130.826 9.33651 129.951 10.2217 128.618 10.2217C127.407 10.2217 126.505 9.36327 126.505 7.35096V1.9856H125.321Z" fill="#00537E"/>
<path d="M135.599 11.0265V7.16349C135.599 5.66088 135.585 4.57424 135.517 3.43404L135.558 3.42064C136.052 4.46241 136.614 5.47069 137.24 6.43896L140.121 11.0265H141.305V1.9856H140.201V5.78169C140.201 7.17691 140.228 8.27663 140.336 9.48406L140.296 9.49716C139.825 8.48223 139.286 7.50078 138.68 6.55978L135.787 1.9856H134.495V11.0266L135.599 11.0265Z" fill="#00537E"/>
<path d="M143.346 10.584C144.054 10.9768 144.851 11.1801 145.661 11.1741C147.801 11.1741 148.824 9.95352 148.824 8.55802C148.824 7.23036 148.057 6.50554 146.522 5.90212C145.271 5.4192 144.719 5.00323 144.719 4.15849C144.719 3.54138 145.19 2.80346 146.428 2.80346C147.026 2.79224 147.616 2.94048 148.137 3.23282L148.46 2.28038C147.845 1.96619 147.159 1.8138 146.468 1.83763C144.705 1.83763 143.535 2.8838 143.535 4.29269C143.535 5.55339 144.45 6.33148 145.93 6.86794C147.154 7.32407 147.639 7.82039 147.639 8.65232C147.639 9.57769 146.94 10.1948 145.742 10.1948C145.005 10.1949 144.283 9.99052 143.656 9.60447L143.346 10.584V10.584Z" fill="#00537E"/>
<path d="M152.614 11.0266H153.798V2.97774H156.571V1.9856H149.855V2.97774H152.614V11.0266Z" fill="#00537E"/>
<path d="M166.023 5.82213H162.51V2.96441H166.238V1.9856H161.325V11.0266H166.44V10.0471H162.51V6.78761H166.023V5.82213Z" fill="#00537E"/>
<path d="M168.844 11.174C168.954 11.1759 169.064 11.1551 169.165 11.1127C169.267 11.0704 169.358 11.0075 169.434 10.928C169.51 10.8486 169.569 10.7543 169.606 10.6511C169.644 10.548 169.659 10.4382 169.652 10.3287C169.661 10.2201 169.647 10.1109 169.61 10.008C169.574 9.90515 169.517 9.81095 169.442 9.73143C169.368 9.65191 169.277 9.58882 169.176 9.54621C169.076 9.5036 168.967 9.4824 168.858 9.48397C168.748 9.48321 168.64 9.50485 168.539 9.54755C168.438 9.59026 168.347 9.65313 168.271 9.73228C168.195 9.81143 168.137 9.90519 168.099 10.0078C168.061 10.1103 168.045 10.2196 168.051 10.3287C168.043 10.4361 168.057 10.5439 168.093 10.6455C168.128 10.7472 168.184 10.8405 168.257 10.9197C168.33 10.9989 168.419 11.0624 168.518 11.1061C168.616 11.1498 168.723 11.173 168.831 11.174H168.844Z" fill="#00537E"/>
<path d="M174.895 11.0266L178.138 1.9856H176.887L175.352 6.4521C174.935 7.63276 174.572 8.77296 174.316 9.81943H174.289C174.033 8.77296 173.696 7.65954 173.32 6.439L171.907 1.98563H170.628L173.603 11.0266L174.895 11.0266Z" fill="#00537E"/>
<path d="M178.237 11.174C178.347 11.1759 178.456 11.155 178.558 11.1127C178.659 11.0703 178.751 11.0074 178.827 10.928C178.903 10.8485 178.961 10.7542 178.999 10.6511C179.036 10.5479 179.052 10.4382 179.044 10.3287C179.053 10.2201 179.039 10.1108 179.003 10.008C178.967 9.90508 178.909 9.81086 178.835 9.73133C178.76 9.6518 178.669 9.58871 178.569 9.54612C178.468 9.50352 178.36 9.48236 178.25 9.48397C178.141 9.48326 178.032 9.50494 177.931 9.54767C177.83 9.59039 177.739 9.65326 177.663 9.7324C177.588 9.81154 177.529 9.90528 177.491 10.0078C177.453 10.1104 177.437 10.2196 177.443 10.3287C177.435 10.4361 177.449 10.5439 177.485 10.6455C177.52 10.7472 177.576 10.8405 177.65 10.9197C177.723 10.9989 177.811 11.0624 177.91 11.1061C178.009 11.1498 178.115 11.173 178.223 11.174H178.237Z" fill="#00537E"/>
<path d="M163.824 26.3001C168.124 26.2219 171.434 26.271 172.273 28.3892C172.598 29.2095 172.868 30.6369 171.127 33.1202L147.878 64.7768L120.978 101.408L97.731 133.067C95.4921 136.115 92.8752 137.608 90.2658 137.545C87.6564 137.608 85.0392 136.115 82.8002 133.067L59.5539 101.408L32.6528 64.7768L9.40358 33.1202C7.66346 30.6369 7.93303 29.2095 8.25813 28.3892C9.09729 26.271 12.4071 26.2219 16.7082 26.3001L163.824 26.3001Z" fill="white"/>
<path d="M163.824 28.7281C168.124 28.6498 171.434 28.6992 172.273 30.8172C172.598 31.6378 172.868 33.0651 171.127 35.5485L97.731 129.425C95.4921 132.473 92.8752 133.966 90.2658 133.903C87.6564 133.966 85.0392 132.473 82.8002 129.425L9.40358 35.5485C7.66346 33.0651 7.93303 31.6378 8.25813 30.8172C9.09729 28.6992 12.4071 28.6498 16.7082 28.7281H163.824Z" fill="#85C2EB"/>
<path d="M89.4459 38.2466L92.0124 37.853L94.6165 34.0768L97.2213 33.0542L95.4069 37.2627V38.8369L92.0124 40.2144L95.0114 47.2152L83.8422 54.5722L76.2642 63.5027L74.2517 71.8803L76.2642 90.5666L71.2521 89.9769L71.4496 93.7531L67.4635 95.7584L63.8716 95.5622L67.2661 93.1628L68.6474 89.7795L67.2661 63.5027L57.2808 64.3273L54.0838 69.088L57.6756 71.4874V74.4765L55.0709 75.2637L54.2812 72.6681L52.5044 74.8701L48.9131 69.6783L50.2951 66.6886L52.4642 57.5346L52.5044 57.3645L53.9978 54.7683L51.393 54.5722L49.2214 51.5824L50.9982 48.5927L54.3926 48.3959L56.2077 51.3856H58.6628L63.0819 48.5927L70.2657 47.2152L83.5282 44.6488L89.4459 38.2466Z" fill="#00537E"/>
<path d="M118.115 95.5622L114.523 95.7584L110.537 93.7531L110.733 89.9769L105.722 90.5666L107.734 71.8803L105.722 63.5027L98.1441 54.5722L86.9742 47.2152L89.9738 40.2144L86.5794 38.8369V37.2627L84.765 33.0542L87.3697 34.0768L89.9738 37.853L92.5404 38.2466L98.5173 44.713L111.721 47.2152L118.904 48.5927L123.323 51.3856H125.779L127.593 48.3959L130.987 48.5927L132.764 51.5824L130.593 54.5722L127.988 54.7683L129.482 57.3645L131.691 66.6886L133.073 69.6783L129.482 74.8701L127.705 72.6681L126.915 75.2637L124.311 74.4765V71.4874L127.902 69.088L124.705 64.3273L114.72 63.5027L113.339 89.7795L114.72 93.1628L118.115 95.5622Z" fill="white"/>
<path d="M17.0742 84.2201C17.0743 82.695 17.6821 81.2324 18.7641 80.154C19.846 79.0756 21.3134 78.4698 22.8435 78.4697H157.107C158.637 78.4697 160.104 79.0755 161.187 80.1539C162.269 81.2323 162.877 82.6949 162.877 84.2201V111.239C162.877 112.765 162.269 114.227 161.187 115.306C160.104 116.384 158.637 116.99 157.107 116.99H22.8435C21.3134 116.99 19.846 116.384 18.764 115.306C17.6821 114.227 17.0743 112.765 17.0743 111.239V84.2201H17.0742Z" fill="#00537E" stroke="white" stroke-width="1.6866" stroke-miterlimit="3.86369"/>
<path d="M156.148 82.5234V110.642H149.094L144.907 97.8594V110.642H138.177V82.5234H144.907L149.419 95.1851V82.5234H156.148Z" fill="white"/>
<path d="M115.409 82.5234H128.83V88.1506H123.458V93.4827H128.486V98.8319H123.458V105.015H129.365V110.642H115.409V82.5234Z" fill="white"/>
<path d="M106.826 82.5234V88.1506L100.824 105.015H106.826V110.642H91.9908V106.561L98.1855 88.1506H92.7174V82.5234H106.826Z" fill="white"/>
<path d="M83.6384 82.5234V110.642H75.5891V82.5234H83.6384Z" fill="white"/>
<path d="M42.9802 82.5234L38.3725 95.2194L43.4196 110.642H35.1035L31.853 98.5888V110.642H23.8044V82.5234H31.853V93.4478L35.4283 82.5234H42.9802Z" fill="white"/>
<path d="M64.3849 82.2791L68.9926 110.397H60.7523L60.3511 105.343H57.4642L56.9859 110.397H48.6501L52.7413 82.2791H64.3849Z" fill="white"/>
<path d="M60.1215 100.358C59.7134 97.1746 59.3055 93.2437 58.8978 88.5657C58.0819 93.9382 57.5721 97.8691 57.3684 100.358H60.1215Z" fill="#00537E"/>
</g>
<defs>
<clipPath id="clip0_3:152">
<rect width="180" height="145" fill="white"/>
</clipPath>
</defs>
</svg>
